<svg width="163" height="26" viewBox="0 0 163 26" fill="none" xmlns="http://www.w3.org/2000/svg">
<path d="M7.42 20.224C6.05733 20.224 4.86267 19.972 3.836 19.468C2.80933 18.9453 2.016 18.2173 1.456 17.284C0.896 16.3507 0.616 15.268 0.616 14.036V12.16C0.616 12.0667 0.644 11.992 0.7 11.936C0.774667 11.8613 0.858667 11.824 0.952 11.824H3.528C3.62133 11.824 3.696 11.8613 3.752 11.936C3.82667 11.992 3.864 12.0667 3.864 12.16V14.036C3.864 15.044 4.18133 15.8653 4.816 16.5C5.46933 17.116 6.33733 17.424 7.42 17.424C8.46533 17.424 9.324 17.116 9.996 16.5C10.668 15.8653 11.004 15.044 11.004 14.036V0.735999C11.004 0.642666 11.032 0.567999 11.088 0.511999C11.1627 0.437332 11.2467 0.399999 11.34 0.399999H13.888C13.9813 0.399999 14.056 0.437332 14.112 0.511999C14.1867 0.567999 14.224 0.642666 14.224 0.735999V14.036C14.224 15.268 13.9347 16.3507 13.356 17.284C12.796 18.2173 11.9933 18.9453 10.948 19.468C9.92133 19.972 8.74533 20.224 7.42 20.224ZM23.4655 5.468C24.6415 5.468 25.6775 5.67333 26.5735 6.084C27.4695 6.49467 28.1602 7.064 28.6455 7.792C29.1309 8.50133 29.3735 9.31333 29.3735 10.228V19.664C29.3735 19.7573 29.3362 19.8413 29.2615 19.916C29.2055 19.972 29.1309 20 29.0375 20H26.4615C26.3682 20 26.2842 19.972 26.2095 19.916C26.1535 19.8413 26.1255 19.7573 26.1255 19.664V18.768C26.1255 18.712 26.1069 18.684 26.0695 18.684C26.0322 18.6653 25.9949 18.6747 25.9575 18.712C25.0429 19.72 23.7175 20.224 21.9815 20.224C20.5815 20.224 19.4242 19.8693 18.5095 19.16C17.6135 18.4507 17.1655 17.396 17.1655 15.996C17.1655 14.54 17.6695 13.4107 18.6775 12.608C19.7042 11.7867 21.1415 11.376 22.9895 11.376H25.9855C26.0789 11.376 26.1255 11.3293 26.1255 11.236V10.564C26.1255 9.836 25.9109 9.276 25.4815 8.884C25.0522 8.47333 24.4082 8.268 23.5495 8.268C22.8402 8.268 22.2615 8.39867 21.8135 8.66C21.3842 8.90267 21.1135 9.248 21.0015 9.696C20.9455 9.92 20.8149 10.0133 20.6095 9.976L17.8935 9.64C17.8002 9.62133 17.7162 9.59333 17.6415 9.556C17.5855 9.5 17.5669 9.43467 17.5855 9.36C17.7349 8.22133 18.3415 7.288 19.4055 6.56C20.4882 5.832 21.8415 5.468 23.4655 5.468ZM22.7935 17.648C23.7082 17.648 24.4922 17.4053 25.1455 16.92C25.7989 16.4347 26.1255 15.8187 26.1255 15.072V13.756C26.1255 13.6627 26.0789 13.616 25.9855 13.616H23.6335C22.6442 13.616 21.8602 13.8027 21.2815 14.176C20.7215 14.5493 20.4415 15.0813 20.4415 15.772C20.4415 16.3693 20.6562 16.836 21.0855 17.172C21.5335 17.4893 22.1029 17.648 22.7935 17.648ZM44.7024 11.236C44.7771 11.7027 44.8144 12.2253 44.8144 12.804L44.7864 13.672C44.7864 13.896 44.6744 14.008 44.4504 14.008H35.6864C35.5931 14.008 35.5464 14.0547 35.5464 14.148C35.6024 14.764 35.6864 15.184 35.7984 15.408C36.2464 16.752 37.3384 17.4333 39.0744 17.452C40.3438 17.452 41.3518 16.9293 42.0984 15.884C42.1731 15.772 42.2664 15.716 42.3784 15.716C42.4531 15.716 42.5184 15.744 42.5744 15.8L44.3104 17.228C44.4784 17.3587 44.5064 17.508 44.3944 17.676C43.8158 18.4973 43.0411 19.132 42.0704 19.58C41.1184 20.028 40.0544 20.252 38.8784 20.252C37.4224 20.252 36.1811 19.9253 35.1544 19.272C34.1464 18.6187 33.4091 17.704 32.9424 16.528C32.5131 15.52 32.2984 14.12 32.2984 12.328C32.2984 11.2453 32.4104 10.368 32.6344 9.696C33.0078 8.38933 33.7078 7.36267 34.7344 6.616C35.7798 5.85067 37.0304 5.468 38.4864 5.468C42.1638 5.468 44.2358 7.39067 44.7024 11.236ZM38.4864 8.268C37.7958 8.268 37.2171 8.44533 36.7504 8.8C36.3024 9.136 35.9851 9.612 35.7984 10.228C35.6864 10.5453 35.6118 10.956 35.5744 11.46C35.5371 11.5533 35.5744 11.6 35.6864 11.6H41.3704C41.4638 11.6 41.5104 11.5533 41.5104 11.46C41.4731 10.9933 41.4171 10.6387 41.3424 10.396C41.1744 9.724 40.8384 9.20133 40.3344 8.828C39.8491 8.45467 39.2331 8.268 38.4864 8.268ZM56.5469 6.028C56.5469 5.93467 56.5749 5.86 56.6309 5.804C56.7055 5.72933 56.7895 5.692 56.8829 5.692H59.4589C59.5522 5.692 59.6269 5.72933 59.6829 5.804C59.7575 5.86 59.7949 5.93467 59.7949 6.028V19.048C59.7949 21.3813 59.1229 23.0427 57.7789 24.032C56.4535 25.04 54.7082 25.544 52.5429 25.544C51.9642 25.544 51.3949 25.516 50.8349 25.46C50.6295 25.4413 50.5269 25.32 50.5269 25.096L50.6109 22.8C50.6109 22.5947 50.7415 22.492 51.0029 22.492C51.5442 22.548 52.0295 22.576 52.4589 22.576C53.8589 22.576 54.8855 22.296 55.5389 21.736C56.2109 21.1947 56.5469 20.2707 56.5469 18.964V18.74C56.5469 18.684 56.5282 18.656 56.4909 18.656C56.4535 18.6373 56.4162 18.6467 56.3789 18.684C55.6135 19.5053 54.5309 19.916 53.1309 19.916C51.9175 19.916 50.8069 19.608 49.7989 18.992C48.7909 18.376 48.0909 17.4333 47.6989 16.164C47.4562 15.2867 47.3349 14.1573 47.3349 12.776C47.3349 11.2267 47.4842 10.0413 47.7829 9.22C48.1562 8.08133 48.8002 7.176 49.7149 6.504C50.6295 5.81333 51.7029 5.468 52.9349 5.468C54.4095 5.468 55.5575 5.89733 56.3789 6.756C56.4162 6.812 56.4535 6.83067 56.4909 6.812C56.5282 6.79333 56.5469 6.756 56.5469 6.7V6.028ZM56.3509 15.24C56.4255 14.96 56.4722 14.6613 56.4909 14.344C56.5282 14.008 56.5469 13.476 56.5469 12.748C56.5469 12.0387 56.5282 11.5347 56.4909 11.236C56.4722 10.9187 56.4162 10.6107 56.3229 10.312C56.1735 9.696 55.8655 9.20133 55.3989 8.828C54.9509 8.45467 54.3722 8.268 53.6629 8.268C52.9909 8.268 52.4215 8.45467 51.9549 8.828C51.4882 9.20133 51.1522 9.696 50.9469 10.312C50.7229 10.8347 50.6109 11.656 50.6109 12.776C50.6109 13.9333 50.7042 14.7453 50.8909 15.212C51.0775 15.8093 51.4135 16.304 51.8989 16.696C52.4029 17.0693 53.0002 17.256 53.6909 17.256C54.4189 17.256 55.0069 17.0693 55.4549 16.696C55.9029 16.3227 56.2015 15.8373 56.3509 15.24ZM68.6101 5.468C69.7861 5.468 70.8221 5.67333 71.7181 6.084C72.6141 6.49467 73.3047 7.064 73.7901 7.792C74.2754 8.50133 74.5181 9.31333 74.5181 10.228V19.664C74.5181 19.7573 74.4807 19.8413 74.4061 19.916C74.3501 19.972 74.2754 20 74.1821 20H71.6061C71.5127 20 71.4287 19.972 71.3541 19.916C71.2981 19.8413 71.2701 19.7573 71.2701 19.664V18.768C71.2701 18.712 71.2514 18.684 71.2141 18.684C71.1767 18.6653 71.1394 18.6747 71.1021 18.712C70.1874 19.72 68.8621 20.224 67.1261 20.224C65.7261 20.224 64.5687 19.8693 63.6541 19.16C62.7581 18.4507 62.3101 17.396 62.3101 15.996C62.3101 14.54 62.8141 13.4107 63.8221 12.608C64.8487 11.7867 66.2861 11.376 68.1341 11.376H71.1301C71.2234 11.376 71.2701 11.3293 71.2701 11.236V10.564C71.2701 9.836 71.0554 9.276 70.6261 8.884C70.1967 8.47333 69.5527 8.268 68.6941 8.268C67.9847 8.268 67.4061 8.39867 66.9581 8.66C66.5287 8.90267 66.2581 9.248 66.1461 9.696C66.0901 9.92 65.9594 10.0133 65.7541 9.976L63.0381 9.64C62.9447 9.62133 62.8607 9.59333 62.7861 9.556C62.7301 9.5 62.7114 9.43467 62.7301 9.36C62.8794 8.22133 63.4861 7.288 64.5501 6.56C65.6327 5.832 66.9861 5.468 68.6101 5.468ZM67.9381 17.648C68.8527 17.648 69.6367 17.4053 70.2901 16.92C70.9434 16.4347 71.2701 15.8187 71.2701 15.072V13.756C71.2701 13.6627 71.2234 13.616 71.1301 13.616H68.7781C67.7887 13.616 67.0047 13.8027 66.4261 14.176C65.8661 14.5493 65.5861 15.0813 65.5861 15.772C65.5861 16.3693 65.8007 16.836 66.2301 17.172C66.6781 17.4893 67.2474 17.648 67.9381 17.648ZM84.443 5.524C85.0403 5.524 85.563 5.64533 86.011 5.888C86.1603 5.96267 86.2163 6.10267 86.179 6.308L85.703 8.828C85.6843 9.052 85.5536 9.11733 85.311 9.024C85.031 8.93067 84.7043 8.884 84.331 8.884C84.0883 8.884 83.9016 8.89333 83.771 8.912C82.987 8.94933 82.3336 9.22933 81.811 9.752C81.2883 10.256 81.027 10.9187 81.027 11.74V19.664C81.027 19.7573 80.9896 19.8413 80.915 19.916C80.859 19.972 80.7843 20 80.691 20H78.115C78.0216 20 77.9376 19.972 77.863 19.916C77.807 19.8413 77.779 19.7573 77.779 19.664V6.028C77.779 5.93467 77.807 5.86 77.863 5.804C77.9376 5.72933 78.0216 5.692 78.115 5.692H80.691C80.7843 5.692 80.859 5.72933 80.915 5.804C80.9896 5.86 81.027 5.93467 81.027 6.028V7.288C81.027 7.36267 81.0363 7.40933 81.055 7.428C81.0923 7.428 81.1296 7.4 81.167 7.344C81.951 6.13067 83.043 5.524 84.443 5.524ZM105.224 20C105.037 20 104.906 19.916 104.832 19.748L101.136 11.684C101.098 11.6093 101.042 11.572 100.968 11.572H97.6078C97.5144 11.572 97.4678 11.6187 97.4678 11.712V19.664C97.4678 19.7573 97.4304 19.8413 97.3558 19.916C97.2998 19.972 97.2251 20 97.1318 20H94.5558C94.4624 20 94.3784 19.972 94.3038 19.916C94.2478 19.8413 94.2198 19.7573 94.2198 19.664V0.735999C94.2198 0.642666 94.2478 0.567999 94.3038 0.511999C94.3784 0.437332 94.4624 0.399999 94.5558 0.399999H102.256C103.394 0.399999 104.402 0.642666 105.28 1.128C106.157 1.59467 106.838 2.26667 107.324 3.144C107.809 4.00267 108.052 4.992 108.052 6.112C108.052 7.4 107.716 8.50133 107.044 9.416C106.39 10.312 105.476 10.9373 104.3 11.292C104.262 11.292 104.234 11.3107 104.216 11.348C104.197 11.3853 104.197 11.4227 104.216 11.46L108.164 19.608C108.201 19.6827 108.22 19.7387 108.22 19.776C108.22 19.9253 108.117 20 107.912 20H105.224ZM97.6078 3.2C97.5144 3.2 97.4678 3.24667 97.4678 3.34V8.912C97.4678 9.00533 97.5144 9.052 97.6078 9.052H101.808C102.704 9.052 103.422 8.79067 103.964 8.268C104.524 7.72667 104.804 7.01733 104.804 6.14C104.804 5.26267 104.524 4.55333 103.964 4.012C103.422 3.47067 102.704 3.2 101.808 3.2H97.6078ZM122.988 11.236C123.062 11.7027 123.1 12.2253 123.1 12.804L123.072 13.672C123.072 13.896 122.96 14.008 122.736 14.008H113.972C113.878 14.008 113.832 14.0547 113.832 14.148C113.888 14.764 113.972 15.184 114.084 15.408C114.532 16.752 115.624 17.4333 117.36 17.452C118.629 17.452 119.637 16.9293 120.384 15.884C120.458 15.772 120.552 15.716 120.664 15.716C120.738 15.716 120.804 15.744 120.86 15.8L122.596 17.228C122.764 17.3587 122.792 17.508 122.68 17.676C122.101 18.4973 121.326 19.132 120.356 19.58C119.404 20.028 118.34 20.252 117.164 20.252C115.708 20.252 114.466 19.9253 113.44 19.272C112.432 18.6187 111.694 17.704 111.228 16.528C110.798 15.52 110.584 14.12 110.584 12.328C110.584 11.2453 110.696 10.368 110.92 9.696C111.293 8.38933 111.993 7.36267 113.02 6.616C114.065 5.85067 115.316 5.468 116.772 5.468C120.449 5.468 122.521 7.39067 122.988 11.236ZM116.772 8.268C116.081 8.268 115.502 8.44533 115.036 8.8C114.588 9.136 114.27 9.612 114.084 10.228C113.972 10.5453 113.897 10.956 113.86 11.46C113.822 11.5533 113.86 11.6 113.972 11.6H119.656C119.749 11.6 119.796 11.5533 119.796 11.46C119.758 10.9933 119.702 10.6387 119.628 10.396C119.46 9.724 119.124 9.20133 118.62 8.828C118.134 8.45467 117.518 8.268 116.772 8.268ZM131.169 20.168C129.993 20.168 128.957 20 128.061 19.664C127.184 19.3093 126.503 18.8333 126.017 18.236C125.532 17.62 125.289 16.9387 125.289 16.192V15.94C125.289 15.8467 125.317 15.772 125.373 15.716C125.448 15.6413 125.532 15.604 125.625 15.604H128.089C128.183 15.604 128.257 15.6413 128.313 15.716C128.388 15.772 128.425 15.8467 128.425 15.94V15.996C128.425 16.4627 128.677 16.8733 129.181 17.228C129.704 17.564 130.357 17.732 131.141 17.732C131.888 17.732 132.495 17.5827 132.961 17.284C133.428 16.9667 133.661 16.5747 133.661 16.108C133.661 15.6787 133.465 15.3613 133.073 15.156C132.7 14.932 132.084 14.6987 131.225 14.456L130.161 14.12C129.209 13.84 128.407 13.5413 127.753 13.224C127.1 12.9067 126.549 12.4773 126.101 11.936C125.653 11.376 125.429 10.6667 125.429 9.808C125.429 8.50133 125.943 7.46533 126.969 6.7C127.996 5.916 129.349 5.524 131.029 5.524C132.168 5.524 133.167 5.71067 134.025 6.084C134.884 6.43867 135.547 6.94267 136.013 7.596C136.48 8.23067 136.713 8.95867 136.713 9.78C136.713 9.87333 136.676 9.95733 136.601 10.032C136.545 10.088 136.471 10.116 136.377 10.116H133.997C133.904 10.116 133.82 10.088 133.745 10.032C133.689 9.95733 133.661 9.87333 133.661 9.78C133.661 9.29467 133.419 8.89333 132.933 8.576C132.467 8.24 131.823 8.072 131.001 8.072C130.273 8.072 129.676 8.212 129.209 8.492C128.761 8.75333 128.537 9.12667 128.537 9.612C128.537 10.06 128.752 10.4053 129.181 10.648C129.629 10.872 130.367 11.124 131.393 11.404L132.009 11.572C132.999 11.8707 133.829 12.1787 134.501 12.496C135.173 12.7947 135.743 13.224 136.209 13.784C136.676 14.3253 136.909 15.0347 136.909 15.912C136.909 17.2373 136.387 18.2827 135.341 19.048C134.296 19.7947 132.905 20.168 131.169 20.168ZM147.219 7.988C147.219 8.08133 147.181 8.16533 147.107 8.24C147.051 8.296 146.976 8.324 146.883 8.324H144.027C143.933 8.324 143.887 8.37067 143.887 8.464V15.212C143.887 15.9213 144.036 16.4347 144.335 16.752C144.652 17.0693 145.147 17.228 145.819 17.228H146.659C146.752 17.228 146.827 17.2653 146.883 17.34C146.957 17.396 146.995 17.4707 146.995 17.564V19.664C146.995 19.8693 146.883 19.9907 146.659 20.028L145.203 20.056C143.728 20.056 142.627 19.804 141.899 19.3C141.171 18.796 140.797 17.844 140.779 16.444V8.464C140.779 8.37067 140.732 8.324 140.639 8.324H139.043C138.949 8.324 138.865 8.296 138.791 8.24C138.735 8.16533 138.707 8.08133 138.707 7.988V6.028C138.707 5.93467 138.735 5.86 138.791 5.804C138.865 5.72933 138.949 5.692 139.043 5.692H140.639C140.732 5.692 140.779 5.64533 140.779 5.552V2.276C140.779 2.18267 140.807 2.108 140.863 2.052C140.937 1.97733 141.021 1.94 141.115 1.94H143.551C143.644 1.94 143.719 1.97733 143.775 2.052C143.849 2.108 143.887 2.18267 143.887 2.276V5.552C143.887 5.64533 143.933 5.692 144.027 5.692H146.883C146.976 5.692 147.051 5.72933 147.107 5.804C147.181 5.86 147.219 5.93467 147.219 6.028V7.988ZM155.906 20.224C154.431 20.224 153.162 19.8507 152.098 19.104C151.052 18.3573 150.315 17.3213 149.886 15.996C149.568 14.988 149.41 13.924 149.41 12.804C149.41 11.6093 149.559 10.5453 149.858 9.612C150.287 8.30533 151.034 7.288 152.098 6.56C153.162 5.832 154.44 5.468 155.934 5.468C157.352 5.468 158.575 5.832 159.602 6.56C160.647 7.288 161.384 8.296 161.814 9.584C162.15 10.48 162.318 11.544 162.318 12.776C162.318 13.952 162.159 15.016 161.842 15.968C161.412 17.2933 160.675 18.3387 159.63 19.104C158.584 19.8507 157.343 20.224 155.906 20.224ZM155.906 17.424C156.596 17.424 157.184 17.228 157.67 16.836C158.174 16.444 158.538 15.8933 158.762 15.184C158.948 14.568 159.042 13.784 159.042 12.832C159.042 11.824 158.948 11.04 158.762 10.48C158.556 9.77067 158.202 9.22933 157.698 8.856C157.194 8.464 156.578 8.268 155.85 8.268C155.159 8.268 154.562 8.464 154.058 8.856C153.554 9.22933 153.19 9.77067 152.966 10.48C152.779 11.1333 152.686 11.9173 152.686 12.832C152.686 13.7467 152.779 14.5307 152.966 15.184C153.171 15.8933 153.526 16.444 154.03 16.836C154.552 17.228 155.178 17.424 155.906 17.424Z" fill="white"/>
</svg>
